<svg width="91" height="62" viewBox="0 0 91 62" fill="none" xmlns="http://www.w3.org/2000/svg">
<path d="M41.592 6.948C42.784 6.948 43.796 7.108 44.628 7.428C45.468 7.74 46.236 8.184 46.932 8.76L45 11.088C44.544 10.712 44.04 10.416 43.488 10.2C42.936 9.976 42.336 9.864 41.688 9.864C40.992 9.864 40.356 10.064 39.78 10.464C39.204 10.856 38.744 11.48 38.4 12.336C38.056 13.184 37.884 14.288 37.884 15.648C37.884 16.984 38.048 18.076 38.376 18.924C38.712 19.764 39.172 20.384 39.756 20.784C40.34 21.176 41.008 21.372 41.76 21.372C42.592 21.372 43.284 21.216 43.836 20.904C44.388 20.592 44.896 20.252 45.36 19.884L47.148 22.164C46.524 22.78 45.756 23.308 44.844 23.748C43.932 24.188 42.832 24.408 41.544 24.408C40.04 24.408 38.704 24.076 37.536 23.412C36.376 22.74 35.464 21.756 34.8 20.46C34.144 19.156 33.816 17.552 33.816 15.648C33.816 13.792 34.156 12.216 34.836 10.92C35.524 9.624 36.456 8.64 37.632 7.968C38.808 7.288 40.128 6.948 41.592 6.948ZM59.7986 20.328C59.7986 20.808 59.8626 21.156 59.9906 21.372C60.1266 21.588 60.3426 21.752 60.6386 21.864L59.8586 24.36C59.1066 24.288 58.4706 24.124 57.9506 23.868C57.4386 23.604 57.0346 23.208 56.7386 22.68C56.2506 23.264 55.6266 23.7 54.8666 23.988C54.1066 24.268 53.3306 24.408 52.5386 24.408C51.2266 24.408 50.1786 24.036 49.3946 23.292C48.6186 22.54 48.2306 21.576 48.2306 20.4C48.2306 19.016 48.7706 17.948 49.8506 17.196C50.9386 16.444 52.4666 16.068 54.4346 16.068H56.1506V15.588C56.1506 14.924 55.9346 14.432 55.5026 14.112C55.0786 13.792 54.4546 13.632 53.6306 13.632C53.2226 13.632 52.6986 13.692 52.0586 13.812C51.4186 13.924 50.7786 14.088 50.1386 14.304L49.2626 11.784C50.0866 11.472 50.9426 11.236 51.8306 11.076C52.7266 10.916 53.5266 10.836 54.2306 10.836C56.1266 10.836 57.5266 11.224 58.4306 12C59.3426 12.768 59.7986 13.88 59.7986 15.336V20.328ZM53.8466 21.696C54.2546 21.696 54.6826 21.576 55.1306 21.336C55.5786 21.088 55.9186 20.74 56.1506 20.292V18.228H55.2146C54.1586 18.228 53.3826 18.392 52.8866 18.72C52.3906 19.04 52.1426 19.512 52.1426 20.136C52.1426 20.624 52.2906 21.008 52.5866 21.288C52.8906 21.56 53.3106 21.696 53.8466 21.696ZM71.2493 11.256V21.408H74.4893V24H63.8453V21.408H67.4573V13.848H63.9653V11.256H71.2493ZM68.9573 4.584C69.6133 4.584 70.1493 4.788 70.5653 5.196C70.9813 5.604 71.1893 6.112 71.1893 6.72C71.1893 7.328 70.9813 7.84 70.5653 8.256C70.1493 8.664 69.6133 8.868 68.9573 8.868C68.2933 8.868 67.7493 8.664 67.3253 8.256C66.9093 7.84 66.7013 7.328 66.7013 6.72C66.7013 6.112 66.9093 5.604 67.3253 5.196C67.7493 4.788 68.2933 4.584 68.9573 4.584ZM83.3719 10.836C84.6839 10.836 85.7999 11.116 86.7199 11.676C87.6399 12.236 88.3439 13.024 88.8319 14.04C89.3199 15.048 89.5639 16.232 89.5639 17.592C89.5639 19.008 89.3159 20.228 88.8199 21.252C88.3319 22.268 87.6279 23.048 86.7079 23.592C85.7879 24.136 84.6759 24.408 83.3719 24.408C82.0759 24.408 80.9639 24.14 80.0359 23.604C79.1159 23.068 78.4079 22.292 77.9119 21.276C77.4239 20.26 77.1799 19.04 77.1799 17.616C77.1799 16.264 77.4239 15.08 77.9119 14.064C78.4079 13.048 79.1159 12.256 80.0359 11.688C80.9639 11.12 82.0759 10.836 83.3719 10.836ZM83.3719 13.632C82.5959 13.632 82.0199 13.952 81.6439 14.592C81.2759 15.224 81.0919 16.232 81.0919 17.616C81.0919 19.024 81.2759 20.044 81.6439 20.676C82.0199 21.308 82.5959 21.624 83.3719 21.624C84.1479 21.624 84.7199 21.308 85.0879 20.676C85.4639 20.044 85.6519 19.016 85.6519 17.592C85.6519 16.216 85.4639 15.212 85.0879 14.58C84.7199 13.948 84.1479 13.632 83.3719 13.632Z" fill="white"/>
<path fill-rule="evenodd" clip-rule="evenodd" d="M18 4H12V10H6H0V16V22V28H6H12V22H18H24V16V10V4H18ZM6 22H12V16H18V10H12V16H6V22Z" fill="white"/>
</svg>
