<svg width="63" height="21" viewBox="0 0 63 21" fill="none" xmlns="http://www.w3.org/2000/svg">
<path fill-rule="evenodd" clip-rule="evenodd" d="M12 2.5H8V6.5H4H0V10.5V14.5V18.5H4H8V14.5H12H16V10.5V6.5V2.5H12ZM4 14.5H8V10.5H12V6.5H8V10.5H4V14.5Z" fill="white"/>
<path d="M29.728 4.632C30.5227 4.632 31.1973 4.73867 31.752 4.952C32.312 5.16 32.824 5.456 33.288 5.84L32 7.392C31.696 7.14133 31.36 6.944 30.992 6.8C30.624 6.65067 30.224 6.576 29.792 6.576C29.328 6.576 28.904 6.70933 28.52 6.976C28.136 7.23733 27.8293 7.65333 27.6 8.224C27.3707 8.78933 27.256 9.52533 27.256 10.432C27.256 11.3227 27.3653 12.0507 27.584 12.616C27.808 13.176 28.1147 13.5893 28.504 13.856C28.8933 14.1173 29.3387 14.248 29.84 14.248C30.3947 14.248 30.856 14.144 31.224 13.936C31.592 13.728 31.9307 13.5013 32.24 13.256L33.432 14.776C33.016 15.1867 32.504 15.5387 31.896 15.832C31.288 16.1253 30.5547 16.272 29.696 16.272C28.6933 16.272 27.8027 16.0507 27.024 15.608C26.2507 15.16 25.6427 14.504 25.2 13.64C24.7627 12.7707 24.544 11.7013 24.544 10.432C24.544 9.19467 24.7707 8.144 25.224 7.28C25.6827 6.416 26.304 5.76 27.088 5.312C27.872 4.85867 28.752 4.632 29.728 4.632ZM41.8658 13.552C41.8658 13.872 41.9084 14.104 41.9938 14.248C42.0844 14.392 42.2284 14.5013 42.4258 14.576L41.9058 16.24C41.4044 16.192 40.9804 16.0827 40.6338 15.912C40.2924 15.736 40.0231 15.472 39.8258 15.12C39.5004 15.5093 39.0844 15.8 38.5778 15.992C38.0711 16.1787 37.5538 16.272 37.0258 16.272C36.1511 16.272 35.4524 16.024 34.9298 15.528C34.4124 15.0267 34.1538 14.384 34.1538 13.6C34.1538 12.6773 34.5138 11.9653 35.2338 11.464C35.9591 10.9627 36.9778 10.712 38.2898 10.712H39.4338V10.392C39.4338 9.94933 39.2898 9.62133 39.0018 9.408C38.7191 9.19467 38.3031 9.088 37.7538 9.088C37.4818 9.088 37.1324 9.128 36.7058 9.208C36.2791 9.28267 35.8524 9.392 35.4258 9.536L34.8418 7.856C35.3911 7.648 35.9618 7.49067 36.5538 7.384C37.1511 7.27733 37.6844 7.224 38.1538 7.224C39.4178 7.224 40.3511 7.48267 40.9538 8C41.5618 8.512 41.8658 9.25333 41.8658 10.224V13.552ZM37.8978 14.464C38.1698 14.464 38.4551 14.384 38.7538 14.224C39.0524 14.0587 39.2791 13.8267 39.4338 13.528V12.152H38.8098C38.1058 12.152 37.5884 12.2613 37.2578 12.48C36.9271 12.6933 36.7618 13.008 36.7618 13.424C36.7618 13.7493 36.8604 14.0053 37.0578 14.192C37.2604 14.3733 37.5404 14.464 37.8978 14.464ZM49.4995 7.504V14.272H51.6595V16H44.5635V14.272H46.9715V9.232H44.6435V7.504H49.4995ZM47.9715 3.056C48.4088 3.056 48.7662 3.192 49.0435 3.464C49.3208 3.736 49.4595 4.07467 49.4595 4.48C49.4595 4.88533 49.3208 5.22667 49.0435 5.504C48.7662 5.776 48.4088 5.912 47.9715 5.912C47.5288 5.912 47.1662 5.776 46.8835 5.504C46.6062 5.22667 46.4675 4.88533 46.4675 4.48C46.4675 4.07467 46.6062 3.736 46.8835 3.464C47.1662 3.192 47.5288 3.056 47.9715 3.056ZM57.5813 7.224C58.4559 7.224 59.1999 7.41067 59.8133 7.784C60.4266 8.15733 60.8959 8.68267 61.2213 9.36C61.5466 10.032 61.7093 10.8213 61.7093 11.728C61.7093 12.672 61.5439 13.4853 61.2133 14.168C60.8879 14.8453 60.4186 15.3653 59.8053 15.728C59.1919 16.0907 58.4506 16.272 57.5813 16.272C56.7173 16.272 55.9759 16.0933 55.3573 15.736C54.7439 15.3787 54.2719 14.8613 53.9413 14.184C53.6159 13.5067 53.4533 12.6933 53.4533 11.744C53.4533 10.8427 53.6159 10.0533 53.9413 9.376C54.2719 8.69867 54.7439 8.17067 55.3573 7.792C55.9759 7.41333 56.7173 7.224 57.5813 7.224ZM57.5813 9.088C57.0639 9.088 56.6799 9.30133 56.4293 9.728C56.1839 10.1493 56.0613 10.8213 56.0613 11.744C56.0613 12.6827 56.1839 13.3627 56.4293 13.784C56.6799 14.2053 57.0639 14.416 57.5813 14.416C58.0986 14.416 58.4799 14.2053 58.7253 13.784C58.9759 13.3627 59.1013 12.6773 59.1013 11.728C59.1013 10.8107 58.9759 10.1413 58.7253 9.72C58.4799 9.29867 58.0986 9.088 57.5813 9.088Z" fill="white"/>
</svg>
